ISO-10303-21;
HEADER;
/* Generated by software containing ST-Developer
 * from STEP Tools, Inc. (www.steptools.com) 
 */

FILE_DESCRIPTION(
/* description */ (''),
/* implementation_level */ '2;1');

FILE_NAME(
/* name */ 'm2_3.5mm_screw_post.step',
/* time_stamp */ '2026-01-13T02:25:17+11:00',
/* author */ (''),
/* organization */ (''),
/* preprocessor_version */ 'ST-DEVELOPER v20.1',
/* originating_system */ 'Autodesk Translation Framework v14.21.0.0',
/* authorisation */ '');

FILE_SCHEMA (('AUTOMOTIVE_DESIGN { 1 0 10303 214 3 1 1 }'));
ENDSEC;

DATA;
#10=MECHANICAL_DESIGN_GEOMETRIC_PRESENTATION_REPRESENTATION('',(#13),#185);
#11=SHAPE_REPRESENTATION_RELATIONSHIP('SRR','None',#192,#12);
#12=ADVANCED_BREP_SHAPE_REPRESENTATION('',(#14),#184);
#13=STYLED_ITEM('',(#202),#14);
#14=MANIFOLD_SOLID_BREP('Body1',#98);
#15=FACE_BOUND('',#30,.T.);
#16=FACE_BOUND('',#33,.T.);
#17=PLANE('',#118);
#18=PLANE('',#122);
#19=CYLINDRICAL_SURFACE('',#115,0.8115);
#20=CYLINDRICAL_SURFACE('',#124,1.9);
#21=FACE_OUTER_BOUND('',#27,.T.);
#22=FACE_OUTER_BOUND('',#28,.T.);
#23=FACE_OUTER_BOUND('',#29,.T.);
#24=FACE_OUTER_BOUND('',#31,.T.);
#25=FACE_OUTER_BOUND('',#32,.T.);
#26=FACE_OUTER_BOUND('',#34,.T.);
#27=EDGE_LOOP('',(#68,#69,#70,#71));
#28=EDGE_LOOP('',(#72,#73,#74,#75,#76));
#29=EDGE_LOOP('',(#77));
#30=EDGE_LOOP('',(#78));
#31=EDGE_LOOP('',(#79,#80,#81,#82,#83));
#32=EDGE_LOOP('',(#84));
#33=EDGE_LOOP('',(#85));
#34=EDGE_LOOP('',(#86,#87,#88,#89));
#35=LINE('',#162,#39);
#36=LINE('',#169,#40);
#37=LINE('',#176,#41);
#38=LINE('',#181,#42);
#39=VECTOR('',#131,1.0615);
#40=VECTOR('',#140,0.8115);
#41=VECTOR('',#149,1.0615);
#42=VECTOR('',#156,1.9);
#43=CIRCLE('',#113,1.3115);
#44=CIRCLE('',#114,0.8115);
#45=CIRCLE('',#116,0.8115);
#46=CIRCLE('',#117,0.8115);
#47=CIRCLE('',#119,1.9);
#48=CIRCLE('',#121,1.3115);
#49=CIRCLE('',#123,1.9);
#50=VERTEX_POINT('',#159);
#51=VERTEX_POINT('',#161);
#52=VERTEX_POINT('',#165);
#53=VERTEX_POINT('',#166);
#54=VERTEX_POINT('',#171);
#55=VERTEX_POINT('',#174);
#56=VERTEX_POINT('',#178);
#57=EDGE_CURVE('',#50,#50,#43,.T.);
#58=EDGE_CURVE('',#50,#51,#35,.T.);
#59=EDGE_CURVE('',#51,#51,#44,.T.);
#60=EDGE_CURVE('',#52,#53,#45,.T.);
#61=EDGE_CURVE('',#53,#52,#46,.T.);
#62=EDGE_CURVE('',#53,#51,#36,.T.);
#63=EDGE_CURVE('',#54,#54,#47,.T.);
#64=EDGE_CURVE('',#55,#55,#48,.T.);
#65=EDGE_CURVE('',#55,#52,#37,.T.);
#66=EDGE_CURVE('',#56,#56,#49,.T.);
#67=EDGE_CURVE('',#54,#56,#38,.T.);
#68=ORIENTED_EDGE('',*,*,#57,.T.);
#69=ORIENTED_EDGE('',*,*,#58,.T.);
#70=ORIENTED_EDGE('',*,*,#59,.T.);
#71=ORIENTED_EDGE('',*,*,#58,.F.);
#72=ORIENTED_EDGE('',*,*,#60,.F.);
#73=ORIENTED_EDGE('',*,*,#61,.F.);
#74=ORIENTED_EDGE('',*,*,#62,.T.);
#75=ORIENTED_EDGE('',*,*,#59,.F.);
#76=ORIENTED_EDGE('',*,*,#62,.F.);
#77=ORIENTED_EDGE('',*,*,#63,.T.);
#78=ORIENTED_EDGE('',*,*,#57,.F.);
#79=ORIENTED_EDGE('',*,*,#64,.T.);
#80=ORIENTED_EDGE('',*,*,#65,.T.);
#81=ORIENTED_EDGE('',*,*,#60,.T.);
#82=ORIENTED_EDGE('',*,*,#61,.T.);
#83=ORIENTED_EDGE('',*,*,#65,.F.);
#84=ORIENTED_EDGE('',*,*,#66,.T.);
#85=ORIENTED_EDGE('',*,*,#64,.F.);
#86=ORIENTED_EDGE('',*,*,#63,.F.);
#87=ORIENTED_EDGE('',*,*,#67,.T.);
#88=ORIENTED_EDGE('',*,*,#66,.F.);
#89=ORIENTED_EDGE('',*,*,#67,.F.);
#90=CONICAL_SURFACE('',#112,1.0615,0.785398163397448);
#91=CONICAL_SURFACE('',#120,1.0615,0.785398163397448);
#92=ADVANCED_FACE('',(#21),#90,.F.);
#93=ADVANCED_FACE('',(#22),#19,.F.);
#94=ADVANCED_FACE('',(#23,#15),#17,.F.);
#95=ADVANCED_FACE('',(#24),#91,.F.);
#96=ADVANCED_FACE('',(#25,#16),#18,.T.);
#97=ADVANCED_FACE('',(#26),#20,.T.);
#98=CLOSED_SHELL('',(#92,#93,#94,#95,#96,#97));
#99=DERIVED_UNIT_ELEMENT(#101,1.);
#100=DERIVED_UNIT_ELEMENT(#187,-3.);
#101=(
MASS_UNIT()
NAMED_UNIT(*)
SI_UNIT(.KILO.,.GRAM.)
);
#102=DERIVED_UNIT((#99,#100));
#103=MEASURE_REPRESENTATION_ITEM('density measure',
POSITIVE_RATIO_MEASURE(7850.),#102);
#104=PROPERTY_DEFINITION_REPRESENTATION(#109,#106);
#105=PROPERTY_DEFINITION_REPRESENTATION(#110,#107);
#106=REPRESENTATION('material name',(#108),#184);
#107=REPRESENTATION('density',(#103),#184);
#108=DESCRIPTIVE_REPRESENTATION_ITEM('Steel','Steel');
#109=PROPERTY_DEFINITION('material property','material name',#194);
#110=PROPERTY_DEFINITION('material property','density of part',#194);
#111=AXIS2_PLACEMENT_3D('',#157,#125,#126);
#112=AXIS2_PLACEMENT_3D('',#158,#127,#128);
#113=AXIS2_PLACEMENT_3D('',#160,#129,#130);
#114=AXIS2_PLACEMENT_3D('',#163,#132,#133);
#115=AXIS2_PLACEMENT_3D('',#164,#134,#135);
#116=AXIS2_PLACEMENT_3D('',#167,#136,#137);
#117=AXIS2_PLACEMENT_3D('',#168,#138,#139);
#118=AXIS2_PLACEMENT_3D('',#170,#141,#142);
#119=AXIS2_PLACEMENT_3D('',#172,#143,#144);
#120=AXIS2_PLACEMENT_3D('',#173,#145,#146);
#121=AXIS2_PLACEMENT_3D('',#175,#147,#148);
#122=AXIS2_PLACEMENT_3D('',#177,#150,#151);
#123=AXIS2_PLACEMENT_3D('',#179,#152,#153);
#124=AXIS2_PLACEMENT_3D('',#180,#154,#155);
#125=DIRECTION('axis',(0.,0.,1.));
#126=DIRECTION('refdir',(1.,0.,0.));
#127=DIRECTION('center_axis',(0.,0.,-1.));
#128=DIRECTION('ref_axis',(1.,0.,0.));
#129=DIRECTION('center_axis',(0.,0.,-1.));
#130=DIRECTION('ref_axis',(1.,0.,0.));
#131=DIRECTION('',(0.707106781186547,-8.65956056235493E-17,0.707106781186547));
#132=DIRECTION('center_axis',(0.,0.,1.));
#133=DIRECTION('ref_axis',(1.,0.,0.));
#134=DIRECTION('center_axis',(0.,0.,-1.));
#135=DIRECTION('ref_axis',(1.,0.,0.));
#136=DIRECTION('center_axis',(0.,0.,-1.));
#137=DIRECTION('ref_axis',(-1.,0.,0.));
#138=DIRECTION('center_axis',(0.,0.,-1.));
#139=DIRECTION('ref_axis',(-1.,0.,0.));
#140=DIRECTION('',(0.,0.,-1.));
#141=DIRECTION('center_axis',(0.,0.,1.));
#142=DIRECTION('ref_axis',(1.,0.,0.));
#143=DIRECTION('center_axis',(0.,0.,-1.));
#144=DIRECTION('ref_axis',(1.,0.,0.));
#145=DIRECTION('center_axis',(0.,0.,1.));
#146=DIRECTION('ref_axis',(-1.,0.,0.));
#147=DIRECTION('center_axis',(0.,0.,1.));
#148=DIRECTION('ref_axis',(-1.,0.,0.));
#149=DIRECTION('',(-0.707106781186547,-8.65956056235493E-17,-0.707106781186548));
#150=DIRECTION('center_axis',(0.,0.,1.));
#151=DIRECTION('ref_axis',(1.,0.,0.));
#152=DIRECTION('center_axis',(0.,0.,1.));
#153=DIRECTION('ref_axis',(1.,0.,0.));
#154=DIRECTION('center_axis',(0.,0.,-1.));
#155=DIRECTION('ref_axis',(1.,0.,0.));
#156=DIRECTION('',(0.,0.,1.));
#157=CARTESIAN_POINT('',(0.,0.,0.));
#158=CARTESIAN_POINT('Origin',(0.,0.,-3.25));
#159=CARTESIAN_POINT('',(-1.3115,1.60612427708175E-16,-3.5));
#160=CARTESIAN_POINT('Origin',(0.,0.,-3.5));
#161=CARTESIAN_POINT('',(-0.8115,-9.93800877508077E-17,-3.));
#162=CARTESIAN_POINT('',(-1.0615,1.29996257729492E-16,-3.25));
#163=CARTESIAN_POINT('Origin',(0.,0.,-3.));
#164=CARTESIAN_POINT('Origin',(0.,0.,-1.925));
#165=CARTESIAN_POINT('',(0.8115,-9.93800877508077E-17,-0.5));
#166=CARTESIAN_POINT('',(-0.8115,9.93800877508077E-17,-0.5));
#167=CARTESIAN_POINT('Origin',(0.,0.,-0.5));
#168=CARTESIAN_POINT('Origin',(0.,0.,-0.5));
#169=CARTESIAN_POINT('',(-0.8115,9.93800877508077E-17,-1.925));
#170=CARTESIAN_POINT('Origin',(0.,0.,-3.5));
#171=CARTESIAN_POINT('',(-1.9,-2.32682891837997E-16,-3.5));
#172=CARTESIAN_POINT('Origin',(0.,0.,-3.5));
#173=CARTESIAN_POINT('Origin',(0.,0.,-0.25));
#174=CARTESIAN_POINT('',(1.3115,1.60612427708175E-16,0.));
#175=CARTESIAN_POINT('Origin',(0.,0.,0.));
#176=CARTESIAN_POINT('',(1.0615,1.29996257729492E-16,-0.25));
#177=CARTESIAN_POINT('Origin',(0.,0.,0.));
#178=CARTESIAN_POINT('',(-1.9,-2.32682891837997E-16,0.));
#179=CARTESIAN_POINT('Origin',(0.,0.,0.));
#180=CARTESIAN_POINT('Origin',(0.,0.,0.));
#181=CARTESIAN_POINT('',(-1.9,2.32682891837997E-16,0.));
#182=UNCERTAINTY_MEASURE_WITH_UNIT(LENGTH_MEASURE(0.01),#186,
'DISTANCE_ACCURACY_VALUE',
'Maximum model space distance between geometric entities at asserted c
onnectivities');
#183=UNCERTAINTY_MEASURE_WITH_UNIT(LENGTH_MEASURE(0.01),#186,
'DISTANCE_ACCURACY_VALUE',
'Maximum model space distance between geometric entities at asserted c
onnectivities');
#184=(
GEOMETRIC_REPRESENTATION_CONTEXT(3)
GLOBAL_UNCERTAINTY_ASSIGNED_CONTEXT((#182))
GLOBAL_UNIT_ASSIGNED_CONTEXT((#186,#188,#189))
REPRESENTATION_CONTEXT('','3D')
);
#185=(
GEOMETRIC_REPRESENTATION_CONTEXT(3)
GLOBAL_UNCERTAINTY_ASSIGNED_CONTEXT((#183))
GLOBAL_UNIT_ASSIGNED_CONTEXT((#186,#188,#189))
REPRESENTATION_CONTEXT('','3D')
);
#186=(
LENGTH_UNIT()
NAMED_UNIT(*)
SI_UNIT(.MILLI.,.METRE.)
);
#187=(
LENGTH_UNIT()
NAMED_UNIT(*)
SI_UNIT($,.METRE.)
);
#188=(
NAMED_UNIT(*)
PLANE_ANGLE_UNIT()
SI_UNIT($,.RADIAN.)
);
#189=(
NAMED_UNIT(*)
SI_UNIT($,.STERADIAN.)
SOLID_ANGLE_UNIT()
);
#190=SHAPE_DEFINITION_REPRESENTATION(#191,#192);
#191=PRODUCT_DEFINITION_SHAPE('',$,#194);
#192=SHAPE_REPRESENTATION('',(#111),#184);
#193=PRODUCT_DEFINITION_CONTEXT('part definition',#198,'design');
#194=PRODUCT_DEFINITION('2026-01-13-02-13-30-408','(Unsaved)',#195,#193);
#195=PRODUCT_DEFINITION_FORMATION('',$,#200);
#196=PRODUCT_RELATED_PRODUCT_CATEGORY('(Unsaved)','(Unsaved)',(#200));
#197=APPLICATION_PROTOCOL_DEFINITION('international standard',
'automotive_design',2009,#198);
#198=APPLICATION_CONTEXT(
'Core Data for Automotive Mechanical Design Process');
#199=PRODUCT_CONTEXT('part definition',#198,'mechanical');
#200=PRODUCT('2026-01-13-02-13-30-408','(Unsaved)',$,(#199));
#201=PRESENTATION_STYLE_ASSIGNMENT((#203));
#202=PRESENTATION_STYLE_ASSIGNMENT((#204));
#203=SURFACE_STYLE_USAGE(.BOTH.,#205);
#204=SURFACE_STYLE_USAGE(.BOTH.,#206);
#205=SURFACE_SIDE_STYLE('',(#207));
#206=SURFACE_SIDE_STYLE('',(#208));
#207=SURFACE_STYLE_FILL_AREA(#209);
#208=SURFACE_STYLE_FILL_AREA(#210);
#209=FILL_AREA_STYLE('Steel - Satin',(#211));
#210=FILL_AREA_STYLE('Copper - Polished',(#212));
#211=FILL_AREA_STYLE_COLOUR('Steel - Satin',#213);
#212=FILL_AREA_STYLE_COLOUR('Copper - Polished',#214);
#213=COLOUR_RGB('Steel - Satin',0.627450980392157,0.627450980392157,0.627450980392157);
#214=COLOUR_RGB('Copper - Polished',0.929411764705882,0.807843137254902,
0.764705882352941);
ENDSEC;
END-ISO-10303-21;
